# Blender 3.6.5
# www.blender.org
mtllib room12.mtl
o Room
v 0.000000 3.000000 0.000000
v 0.000000 0.000000 0.000000
v 25.000000 3.000000 0.000000
v 25.000000 0.000000 0.000000
v 25.000000 3.000000 -25.000000
v 25.000000 0.000000 -25.000000
v 0.000000 3.000000 -25.000000
v 0.000000 0.000000 -25.000000
v -0.300000 3.000000 0.300000
v -0.300000 0.000000 0.300000
v 25.299999 3.000000 0.300000
v 25.299999 0.000000 0.300000
v 25.299999 3.000000 -25.299999
v 25.299999 0.000000 -25.299999
v -0.300000 3.000000 -25.299999
v -0.300000 0.000000 -25.299999
vn -0.0000 -0.0000 -1.0000
vn -1.0000 -0.0000 -0.0000
vn -0.0000 -0.0000 1.0000
vn 1.0000 -0.0000 -0.0000
vn -0.0000 1.0000 -0.0000
vn -0.0000 -1.0000 -0.0000
vt 0.000116 0.942487
vt 0.000116 0.706894
vt 0.028387 0.706894
vt 0.028387 0.942487
vt 0.000116 0.471301
vt 0.028387 0.471301
vt 0.000116 0.235709
vt 0.028387 0.235709
vt 0.000116 0.000116
vt 0.028388 0.000116
s 0
f 1/1/1 3/2/1 4/3/1 2/4/1
f 3/2/2 5/5/2 6/6/2 4/3/2
f 5/5/3 7/7/3 8/8/3 6/6/3
f 1/9/4 2/10/4 8/8/4 7/7/4
f 9/1/3 10/4/3 12/3/3 11/2/3
f 11/2/4 12/3/4 14/6/4 13/5/4
f 13/5/1 14/6/1 16/8/1 15/7/1
f 9/9/2 15/7/2 16/8/2 10/10/2
f 3/2/5 1/1/5 9/1/5 11/2/5
f 5/5/5 3/2/5 11/2/5 13/5/5
f 7/7/5 5/5/5 13/5/5 15/7/5
f 6/6/6 8/8/6 16/8/6 14/6/6
f 4/3/6 6/6/6 14/6/6 12/3/6
f 2/4/6 4/3/6 12/3/6 10/4/6
f 8/8/6 2/10/6 10/10/6 16/8/6
f 1/9/5 7/7/5 15/7/5 9/9/5
o Room.001
v 0.000000 3.000000 -11.000000
v 0.000000 0.000000 -11.000000
v 11.500000 3.000000 -11.000000
v 11.500000 0.000000 -11.000000
v 11.500000 3.000000 0.000000
v 11.500000 0.000000 0.000000
v 0.000000 3.000000 -10.700000
v 0.000000 0.000000 -10.700000
v 11.200000 3.000000 -10.700000
v 11.200000 0.000000 -10.700000
v 11.200000 3.000000 0.000000
v 11.200000 0.000000 0.000000
vn -0.0000 -0.0000 -1.0000
vn 1.0000 -0.0000 -0.0000
vn -0.0000 -0.0000 1.0000
vn -1.0000 -0.0000 -0.0000
vn -0.0000 1.0000 -0.0000
vn -0.0000 -1.0000 -0.0000
vt 0.000037 0.999963
vt 0.000037 0.488890
vt 0.133360 0.488890
vt 0.133360 0.999963
vt 0.000037 0.000036
vt 0.133360 0.000036
s 0
f 17/11/7 19/12/7 20/13/7 18/14/7
f 19/12/8 21/15/8 22/16/8 20/13/8
f 23/11/9 24/14/9 26/13/9 25/12/9
f 25/12/10 26/13/10 28/16/10 27/15/10
f 17/11/10 18/14/10 24/14/10 23/11/10
f 19/12/11 17/11/11 23/11/11 25/12/11
f 21/15/11 19/12/11 25/12/11 27/15/11
f 22/16/9 21/15/9 27/15/9 28/16/9
f 18/14/12 20/13/12 26/13/12 24/14/12
f 20/13/12 22/16/12 28/16/12 26/13/12
o Room.002
v 25.000000 3.000000 -14.000000
v 25.000000 0.000000 -14.000000
v 13.500000 3.000000 -13.999996
v 13.500000 0.000000 -13.999996
v 13.499996 3.000000 -24.999996
v 13.499996 0.000000 -24.999996
v 25.000000 3.000000 -14.300000
v 25.000000 0.000000 -14.300000
v 13.800000 3.000000 -14.299996
v 13.800000 0.000000 -14.299996
v 13.799996 3.000000 -24.999996
v 13.799996 0.000000 -24.999996
vn -0.0000 -0.0000 1.0000
vn -1.0000 -0.0000 -0.0000
vn -0.0000 -0.0000 -1.0000
vn 1.0000 -0.0000 -0.0000
vn -0.0000 1.0000 -0.0000
vn -0.0000 -1.0000 -0.0000
vt 0.000037 0.999963
vt 0.000037 0.488890
vt 0.133360 0.488890
vt 0.133360 0.999963
vt 0.000037 0.000036
vt 0.133360 0.000036
s 0
f 29/17/13 31/18/13 32/19/13 30/20/13
f 31/18/14 33/21/14 34/22/14 32/19/14
f 35/17/15 36/20/15 38/19/15 37/18/15
f 37/18/16 38/19/16 40/22/16 39/21/16
f 29/17/16 30/20/16 36/20/16 35/17/16
f 31/18/17 29/17/17 35/17/17 37/18/17
f 33/21/17 31/18/17 37/18/17 39/21/17
f 34/22/15 33/21/15 39/21/15 40/22/15
f 30/20/18 32/19/18 38/19/18 36/20/18
f 32/19/18 34/22/18 40/22/18 38/19/18
o Floor
v 0.000000 0.000000 0.000000
v 25.000000 0.000000 0.000000
v 25.000000 0.000000 -25.000000
v 0.000000 0.000000 -25.000000
vn -0.0000 1.0000 -0.0000
vt 0.028620 0.999884
vt 0.028620 0.500116
vt 0.528387 0.500116
vt 0.528387 0.999884
s 0
f 41/23/19 42/24/19 43/25/19 44/26/19
o Ceiling
v 0.000000 3.000000 0.000000
v 25.000000 3.000000 0.000000
v 25.000000 3.000000 -25.000000
v 0.000000 3.000000 -25.000000
vn -0.0000 1.0000 -0.0000
vt 0.028620 0.499884
vt 0.028620 0.000116
vt 0.528387 0.000116
vt 0.528388 0.499884
s 0
f 45/27/20 46/28/20 47/29/20 48/30/20
