# Blender 3.6.5
# www.blender.org
mtllib room10.mtl
o Room
v 0.000000 3.000000 0.000000
v 0.000000 0.000000 0.000000
v 25.000000 3.000000 0.000000
v 25.000000 0.000000 0.000000
v 25.000000 3.000000 -25.000000
v 25.000000 0.000000 -25.000000
v 0.000000 3.000000 -25.000000
v 0.000000 0.000000 -25.000000
v -0.300000 3.000000 0.300000
v -0.300000 0.000000 0.300000
v 25.299999 3.000000 0.300000
v 25.299999 0.000000 0.300000
v 25.299999 3.000000 -25.299999
v 25.299999 0.000000 -25.299999
v -0.300000 3.000000 -25.299999
v -0.300000 0.000000 -25.299999
vn -0.0000 -0.0000 -1.0000
vn -1.0000 -0.0000 -0.0000
vn -0.0000 -0.0000 1.0000
vn 1.0000 -0.0000 -0.0000
vn -0.0000 1.0000 -0.0000
vn -0.0000 -1.0000 -0.0000
vt 0.000116 0.942487
vt 0.000116 0.706894
vt 0.028387 0.706894
vt 0.028387 0.942487
vt 0.000116 0.471301
vt 0.028387 0.471301
vt 0.000116 0.235709
vt 0.028387 0.235709
vt 0.000116 0.000116
vt 0.028388 0.000116
s 0
f 1/1/1 3/2/1 4/3/1 2/4/1
f 3/2/2 5/5/2 6/6/2 4/3/2
f 5/5/3 7/7/3 8/8/3 6/6/3
f 1/9/4 2/10/4 8/8/4 7/7/4
f 9/1/3 10/4/3 12/3/3 11/2/3
f 11/2/4 12/3/4 14/6/4 13/5/4
f 13/5/1 14/6/1 16/8/1 15/7/1
f 9/9/2 15/7/2 16/8/2 10/10/2
f 3/2/5 1/1/5 9/1/5 11/2/5
f 5/5/5 3/2/5 11/2/5 13/5/5
f 7/7/5 5/5/5 13/5/5 15/7/5
f 6/6/6 8/8/6 16/8/6 14/6/6
f 4/3/6 6/6/6 14/6/6 12/3/6
f 2/4/6 4/3/6 12/3/6 10/4/6
f 8/8/6 2/10/6 10/10/6 16/8/6
f 1/9/5 7/7/5 15/7/5 9/9/5
o Room.001
v 0.000000 3.000000 -11.000000
v 0.000000 0.000000 -11.000000
v 3.000000 3.000000 -11.000000
v 3.000000 0.000000 -11.000000
v 3.000000 3.000000 -22.000000
v 3.000000 0.000000 -22.000000
v 6.000000 3.000000 -22.000000
v 6.000000 0.000000 -22.000000
v 6.000000 3.000000 -3.000000
v 6.000000 0.000000 -3.000000
v 12.000000 3.000000 -3.000000
v 12.000000 0.000000 -3.000000
v 12.000000 3.000000 -13.000000
v 12.000000 0.000000 -13.000000
v 20.000000 3.000000 -13.000000
v 20.000000 0.000000 -13.000000
v 20.000000 3.000000 -3.000000
v 20.000000 0.000000 -3.000000
v 0.000000 3.000000 -10.700000
v 0.000000 0.000000 -10.700000
v 3.300000 3.000000 -10.700000
v 3.300000 0.000000 -10.700000
v 3.300000 3.000000 -21.700001
v 3.300000 0.000000 -21.700001
v 5.700000 3.000000 -21.700001
v 5.700000 0.000000 -21.700001
v 5.700000 3.000000 -2.700000
v 5.700000 0.000000 -2.700000
v 12.300000 3.000000 -2.700000
v 12.300000 0.000000 -2.700000
v 12.300000 3.000000 -12.700000
v 12.300000 0.000000 -12.700000
v 19.700001 3.000000 -12.700000
v 19.700001 0.000000 -12.700000
v 19.700001 3.000000 -3.000000
v 19.700001 0.000000 -3.000000
vn -0.0000 -0.0000 -1.0000
vn -1.0000 -0.0000 -0.0000
vn 1.0000 -0.0000 -0.0000
vn -0.0000 -0.0000 1.0000
vn -0.0000 1.0000 -0.0000
vn -0.0000 -1.0000 -0.0000
vt 0.042876 0.000021
vt 0.042876 0.042876
vt 0.000021 0.042876
vt 0.000021 0.000021
vt 0.042876 0.200012
vt 0.000021 0.200012
vt 0.042876 0.242868
vt 0.000021 0.242868
vt 0.042876 0.514285
vt 0.000021 0.514285
vt 0.042876 0.599996
vt 0.000021 0.599996
vt 0.042876 0.742847
vt 0.000021 0.742847
vt 0.042876 0.857128
vt 0.000021 0.857128
vt 0.042876 0.999979
vt 0.000021 0.999979
s 0
f 17/11/7 19/12/7 20/13/7 18/14/7
f 19/12/8 21/15/8 22/16/8 20/13/8
f 21/15/7 23/17/7 24/18/7 22/16/7
f 23/17/9 25/19/9 26/20/9 24/18/9
f 25/19/7 27/21/7 28/22/7 26/20/7
f 27/21/8 29/23/8 30/24/8 28/22/8
f 29/23/7 31/25/7 32/26/7 30/24/7
f 31/25/9 33/27/9 34/28/9 32/26/9
f 35/11/10 36/14/10 38/13/10 37/12/10
f 37/12/9 38/13/9 40/16/9 39/15/9
f 39/15/10 40/16/10 42/18/10 41/17/10
f 41/17/8 42/18/8 44/20/8 43/19/8
f 43/19/10 44/20/10 46/22/10 45/21/10
f 45/21/9 46/22/9 48/24/9 47/23/9
f 47/23/10 48/24/10 50/26/10 49/25/10
f 49/25/8 50/26/8 52/28/8 51/27/8
f 17/11/8 18/14/8 36/14/8 35/11/8
f 19/12/11 17/11/11 35/11/11 37/12/11
f 21/15/11 19/12/11 37/12/11 39/15/11
f 23/17/11 21/15/11 39/15/11 41/17/11
f 25/19/11 23/17/11 41/17/11 43/19/11
f 24/18/12 26/20/12 44/20/12 42/18/12
f 27/21/11 25/19/11 43/19/11 45/21/11
f 26/20/12 28/22/12 46/22/12 44/20/12
f 22/16/12 24/18/12 42/18/12 40/16/12
f 29/23/11 27/21/11 45/21/11 47/23/11
f 31/25/11 29/23/11 47/23/11 49/25/11
f 33/27/11 31/25/11 49/25/11 51/27/11
f 34/28/10 33/27/10 51/27/10 52/28/10
f 18/14/12 20/13/12 38/13/12 36/14/12
f 28/22/12 30/24/12 48/24/12 46/22/12
f 20/13/12 22/16/12 40/16/12 38/13/12
f 32/26/12 34/28/12 52/28/12 50/26/12
f 30/24/12 32/26/12 50/26/12 48/24/12
o Room.002
v 9.000000 3.000000 -25.000000
v 9.000000 0.000000 -25.000000
v 8.999999 3.000000 -6.000000
v 8.999999 0.000000 -6.000000
v 9.300000 3.000000 -25.000000
v 9.300000 0.000000 -25.000000
v 9.299999 3.000000 -6.000000
v 9.299999 0.000000 -6.000000
vn -1.0000 -0.0000 -0.0000
vn 1.0000 -0.0000 -0.0000
vn -0.0000 -0.0000 -1.0000
vn -0.0000 1.0000 -0.0000
vn -0.0000 -0.0000 1.0000
vn -0.0000 -1.0000 -0.0000
vt 0.000040 0.999960
vt 0.157922 0.999960
vt 0.157922 0.000040
vt 0.000040 0.000040
s 0
f 53/29/13 54/30/13 56/31/13 55/32/13
f 57/29/14 59/32/14 60/31/14 58/30/14
f 54/30/15 53/29/15 57/29/15 58/30/15
f 53/29/16 55/32/16 59/32/16 57/29/16
f 55/32/17 56/31/17 60/31/17 59/32/17
f 56/31/18 54/30/18 58/30/18 60/31/18
o Room.003
v 14.180536 2.700000 -21.377729
v 14.180536 0.000000 -21.377729
v 19.180536 2.700000 -21.377729
v 19.180536 0.000000 -21.377729
v 19.180536 2.700000 -14.377729
v 19.180536 0.000000 -14.377729
v 14.180536 2.700000 -21.677729
v 14.180536 0.000000 -21.677729
v 19.480537 2.700000 -21.677729
v 19.480537 0.000000 -21.677729
v 19.480537 2.700000 -14.377729
v 19.480537 0.000000 -14.377729
vn -0.0000 -0.0000 1.0000
vn -1.0000 -0.0000 -0.0000
vn -0.0000 -0.0000 -1.0000
vn 1.0000 -0.0000 -0.0000
vn -0.0000 1.0000 -0.0000
vn -0.0000 -1.0000 -0.0000
vt 0.225026 0.000047
vt 0.000047 0.000047
vt 0.000047 0.416674
vt 0.225026 0.416674
vt 0.000047 0.999952
vt 0.225026 0.999953
s 0
f 61/33/19 62/34/19 64/35/19 63/36/19
f 63/36/20 64/35/20 66/37/20 65/38/20
f 67/33/21 69/36/21 70/35/21 68/34/21
f 69/36/22 71/38/22 72/37/22 70/35/22
f 62/34/20 61/33/20 67/33/20 68/34/20
f 61/33/23 63/36/23 69/36/23 67/33/23
f 63/36/23 65/38/23 71/38/23 69/36/23
f 65/38/19 66/37/19 72/37/19 71/38/19
f 64/35/24 62/34/24 68/34/24 70/35/24
f 66/37/24 64/35/24 70/35/24 72/37/24
o Floor
v 0.000000 0.000000 0.000000
v 25.000000 0.000000 0.000000
v 25.000000 0.000000 -25.000000
v 0.000000 0.000000 -25.000000
vn -0.0000 1.0000 -0.0000
vt 0.028620 0.999884
vt 0.028620 0.500116
vt 0.528387 0.500116
vt 0.528387 0.999884
s 0
f 73/39/25 74/40/25 75/41/25 76/42/25
o Ceiling
v 0.000000 3.000000 0.000000
v 25.000000 3.000000 0.000000
v 25.000000 3.000000 -25.000000
v 0.000000 3.000000 -25.000000
vn -0.0000 1.0000 -0.0000
vt 0.028620 0.499884
vt 0.028620 0.000116
vt 0.528387 0.000116
vt 0.528388 0.499884
s 0
f 77/43/26 78/44/26 79/45/26 80/46/26
