# Blender 3.6.5
# www.blender.org
mtllib room11.mtl
o Room
v 0.000000 3.000000 0.000000
v 0.000000 0.000000 0.000000
v 25.000000 3.000000 0.000000
v 25.000000 0.000000 0.000000
v 25.000000 3.000000 -25.000000
v 25.000000 0.000000 -25.000000
v 0.000000 3.000000 -25.000000
v 0.000000 0.000000 -25.000000
v -0.300000 3.000000 0.300000
v -0.300000 0.000000 0.300000
v 25.299999 3.000000 0.300000
v 25.299999 0.000000 0.300000
v 25.299999 3.000000 -25.299999
v 25.299999 0.000000 -25.299999
v -0.300000 3.000000 -25.299999
v -0.300000 0.000000 -25.299999
vn -0.0000 -0.0000 -1.0000
vn -1.0000 -0.0000 -0.0000
vn -0.0000 -0.0000 1.0000
vn 1.0000 -0.0000 -0.0000
vn -0.0000 1.0000 -0.0000
vn -0.0000 -1.0000 -0.0000
vt 0.000116 0.942487
vt 0.000116 0.706894
vt 0.028387 0.706894
vt 0.028387 0.942487
vt 0.000116 0.471301
vt 0.028387 0.471301
vt 0.000116 0.235709
vt 0.028387 0.235709
vt 0.000116 0.000116
vt 0.028388 0.000116
s 0
f 1/1/1 3/2/1 4/3/1 2/4/1
f 3/2/2 5/5/2 6/6/2 4/3/2
f 5/5/3 7/7/3 8/8/3 6/6/3
f 1/9/4 2/10/4 8/8/4 7/7/4
f 9/1/3 10/4/3 12/3/3 11/2/3
f 11/2/4 12/3/4 14/6/4 13/5/4
f 13/5/1 14/6/1 16/8/1 15/7/1
f 9/9/2 15/7/2 16/8/2 10/10/2
f 3/2/5 1/1/5 9/1/5 11/2/5
f 5/5/5 3/2/5 11/2/5 13/5/5
f 7/7/5 5/5/5 13/5/5 15/7/5
f 6/6/6 8/8/6 16/8/6 14/6/6
f 4/3/6 6/6/6 14/6/6 12/3/6
f 2/4/6 4/3/6 12/3/6 10/4/6
f 8/8/6 2/10/6 10/10/6 16/8/6
f 1/9/5 7/7/5 15/7/5 9/9/5
o Room.001
v 2.949205 3.000000 -15.800671
v 2.949205 0.000000 -15.800671
v 10.020272 3.000000 -22.871738
v 10.020272 0.000000 -22.871738
v 15.677127 3.000000 -17.214884
v 15.677127 0.000000 -17.214884
v 5.070525 3.000000 -6.608282
v 5.070525 0.000000 -6.608282
v 2.619499 3.000000 -15.895229
v 2.619499 0.000000 -15.895229
v 10.020272 3.000000 -23.296001
v 10.020272 0.000000 -23.296001
v 16.101391 3.000000 -17.214884
v 16.101391 0.000000 -17.214884
v 4.899919 3.000000 -6.013412
v 4.899919 0.000000 -6.013412
vn 0.7071 -0.0000 0.7071
vn -0.7071 -0.0000 0.7071
vn -0.7071 -0.0000 -0.7071
vn 0.9744 -0.0000 -0.2249
vn 0.7071 -0.0000 -0.7071
vn -0.9744 -0.0000 0.2249
vn -0.0000 1.0000 -0.0000
vn -0.0000 -1.0000 -0.0000
vt 0.070721 0.000027
vt 0.000027 0.000027
vt 0.000027 0.235674
vt 0.070721 0.235674
vt 0.000027 0.424192
vt 0.070721 0.424192
vt 0.000027 0.777664
vt 0.070721 0.777664
vt 0.070721 0.999973
vt 0.000027 0.999973
s 0
f 17/11/7 18/12/7 20/13/7 19/14/7
f 19/14/8 20/13/8 22/15/8 21/16/8
f 21/16/9 22/15/9 24/17/9 23/18/9
f 17/19/10 23/18/10 24/17/10 18/20/10
f 25/11/9 27/14/9 28/13/9 26/12/9
f 27/14/11 29/16/11 30/15/11 28/13/11
f 29/16/7 31/18/7 32/17/7 30/15/7
f 25/19/12 26/20/12 32/17/12 31/18/12
f 17/11/13 19/14/13 27/14/13 25/11/13
f 19/14/13 21/16/13 29/16/13 27/14/13
f 21/16/13 23/18/13 31/18/13 29/16/13
f 24/17/14 22/15/14 30/15/14 32/17/14
f 22/15/14 20/13/14 28/13/14 30/15/14
f 20/13/14 18/12/14 26/12/14 28/13/14
f 18/20/14 24/17/14 32/17/14 26/20/14
f 23/18/13 17/19/13 25/19/13 31/18/13
o Room.002
v 22.606997 2.500000 -9.180346
v 22.606997 0.000000 -9.180346
v 15.535931 2.500000 -2.109278
v 15.535931 0.000000 -2.109278
v 9.879075 2.500000 -7.766131
v 9.879075 0.000000 -7.766131
v 20.485674 2.500000 -18.372734
v 20.485674 0.000000 -18.372734
v 22.936703 2.500000 -9.085788
v 22.936703 0.000000 -9.085788
v 15.535930 2.500000 -1.685013
v 15.535930 0.000000 -1.685013
v 9.454811 2.500000 -7.766130
v 9.454811 0.000000 -7.766130
v 20.656281 2.500000 -18.967606
v 20.656281 0.000000 -18.967606
vn -0.7071 -0.0000 -0.7071
vn 0.7071 -0.0000 -0.7071
vn 0.7071 -0.0000 0.7071
vn -0.9744 -0.0000 0.2249
vn -0.7071 -0.0000 0.7071
vn 0.9744 -0.0000 -0.2249
vn -0.0000 1.0000 -0.0000
vn -0.0000 -1.0000 -0.0000
vt 0.058936 0.000024
vt 0.000024 0.000024
vt 0.000024 0.235673
vt 0.058936 0.235673
vt 0.000024 0.424192
vt 0.058936 0.424192
vt 0.000024 0.777665
vt 0.058937 0.777665
vt 0.058937 0.999976
vt 0.000024 0.999976
s 0
f 33/21/15 34/22/15 36/23/15 35/24/15
f 35/24/16 36/23/16 38/25/16 37/26/16
f 37/26/17 38/25/17 40/27/17 39/28/17
f 33/29/18 39/28/18 40/27/18 34/30/18
f 41/21/17 43/24/17 44/23/17 42/22/17
f 43/24/19 45/26/19 46/25/19 44/23/19
f 45/26/15 47/28/15 48/27/15 46/25/15
f 41/29/20 42/30/20 48/27/20 47/28/20
f 33/21/21 35/24/21 43/24/21 41/21/21
f 35/24/21 37/26/21 45/26/21 43/24/21
f 37/26/21 39/28/21 47/28/21 45/26/21
f 40/27/22 38/25/22 46/25/22 48/27/22
f 38/25/22 36/23/22 44/23/22 46/25/22
f 36/23/22 34/22/22 42/22/22 44/23/22
f 34/30/22 40/27/22 48/27/22 42/30/22
f 39/28/21 33/29/21 41/29/21 47/28/21
o Floor
v 0.000000 0.000000 0.000000
v 25.000000 0.000000 0.000000
v 25.000000 0.000000 -25.000000
v 0.000000 0.000000 -25.000000
vn -0.0000 1.0000 -0.0000
vt 0.028620 0.999884
vt 0.028620 0.500116
vt 0.528387 0.500116
vt 0.528387 0.999884
s 0
f 49/31/23 50/32/23 51/33/23 52/34/23
o Ceiling
v 0.000000 3.000000 0.000000
v 25.000000 3.000000 0.000000
v 25.000000 3.000000 -25.000000
v 0.000000 3.000000 -25.000000
vn -0.0000 1.0000 -0.0000
vt 0.028620 0.499884
vt 0.028620 0.000116
vt 0.528387 0.000116
vt 0.528388 0.499884
s 0
f 53/35/24 54/36/24 55/37/24 56/38/24
