# Blender 3.6.5
# www.blender.org
o Room
v 0.000000 3.000000 0.000000
v 0.000000 0.000000 0.000000
v 25.000000 3.000000 0.000000
v 25.000000 0.000000 0.000000
v 25.000000 3.000000 25.000000
v 25.000000 0.000000 25.000000
v 0.000000 3.000000 25.000000
v 0.000000 0.000000 25.000000
v -0.300000 3.000000 -0.300000
v -0.300000 0.000000 -0.300000
v 25.299999 3.000000 -0.300000
v 25.299999 0.000000 -0.300000
v 25.299999 3.000000 25.299999
v 25.299999 0.000000 25.299999
v -0.300000 3.000000 25.299999
v -0.300000 0.000000 25.299999
vn -0.0000 -0.0000 1.0000
vn -1.0000 -0.0000 -0.0000
vn -0.0000 -0.0000 -1.0000
vn 1.0000 -0.0000 -0.0000
vn -0.0000 1.0000 -0.0000
vn -0.0000 -1.0000 -0.0000
vt 0.028387 0.942487
vt 0.000116 0.942487
vt 0.000116 0.706894
vt 0.028387 0.706894
vt 0.000116 0.471301
vt 0.028387 0.471301
vt 0.000116 0.235709
vt 0.028388 0.235709
vt 0.028387 0.000116
vt 0.000116 0.000116
s 0
f 1/1/1 2/2/1 4/3/1 3/4/1
f 3/4/2 4/3/2 6/5/2 5/6/2
f 5/6/3 6/5/3 8/7/3 7/8/3
f 1/9/4 7/8/4 8/7/4 2/10/4
f 9/1/3 11/4/3 12/3/3 10/2/3
f 11/4/4 13/6/4 14/5/4 12/3/4
f 13/6/1 15/8/1 16/7/1 14/5/1
f 9/9/2 10/10/2 16/7/2 15/8/2
f 1/1/5 3/4/5 11/4/5 9/1/5
f 3/4/5 5/6/5 13/6/5 11/4/5
f 5/6/5 7/8/5 15/8/5 13/6/5
f 8/7/6 6/5/6 14/5/6 16/7/6
f 6/5/6 4/3/6 12/3/6 14/5/6
f 4/3/6 2/2/6 10/2/6 12/3/6
f 2/10/6 8/7/6 16/7/6 10/10/6
f 7/8/5 1/9/5 9/9/5 15/8/5
o Room.001
v 0.000000 3.000000 5.915283
v 0.000000 0.000000 5.915283
v 17.000000 3.000000 5.915283
v 17.000000 0.000000 5.915283
v 17.000000 3.000000 15.915283
v 17.000000 0.000000 15.915283
v 9.000000 3.000000 15.915283
v 9.000000 0.000000 15.915283
v 0.000000 3.000000 5.615283
v 0.000000 0.000000 5.615283
v 17.299999 3.000000 5.615283
v 17.299999 0.000000 5.615283
v 17.299999 3.000000 16.215282
v 17.299999 0.000000 16.215282
v 9.000000 3.000000 16.215282
v 9.000000 0.000000 16.215282
vn -0.0000 -0.0000 1.0000
vn -1.0000 -0.0000 -0.0000
vn -0.0000 -0.0000 -1.0000
vn 1.0000 -0.0000 -0.0000
vn -0.0000 1.0000 -0.0000
vn -0.0000 -1.0000 -0.0000
vt 0.000029 0.999971
vt 0.085739 0.999971
vt 0.085739 0.514285
vt 0.000029 0.514285
vt 0.085739 0.228587
vt 0.000029 0.228587
vt 0.085739 0.000029
vt 0.000029 0.000029
s 0
f 17/11/7 18/12/7 20/13/7 19/14/7
f 19/14/8 20/13/8 22/15/8 21/16/8
f 21/16/9 22/15/9 24/17/9 23/18/9
f 25/11/9 27/14/9 28/13/9 26/12/9
f 27/14/10 29/16/10 30/15/10 28/13/10
f 29/16/7 31/18/7 32/17/7 30/15/7
f 18/12/8 17/11/8 25/11/8 26/12/8
f 17/11/11 19/14/11 27/14/11 25/11/11
f 19/14/11 21/16/11 29/16/11 27/14/11
f 21/16/11 23/18/11 31/18/11 29/16/11
f 23/18/8 24/17/8 32/17/8 31/18/8
f 24/17/12 22/15/12 30/15/12 32/17/12
f 22/15/12 20/13/12 28/13/12 30/15/12
f 20/13/12 18/12/12 26/12/12 28/13/12
o Column
v 4.470406 0.400000 3.248957
v 4.470406 0.400000 2.448957
v 5.270406 0.400000 2.448957
v 5.270406 0.400000 3.248957
v 4.470406 2.600000 3.248957
v 4.470406 2.600000 2.448957
v 5.270406 2.600000 2.448957
v 5.270406 2.600000 3.248957
vn -0.0000 -1.0000 -0.0000
vn -1.0000 -0.0000 -0.0000
vn -0.0000 -0.0000 -1.0000
vn 1.0000 -0.0000 -0.0000
vn -0.0000 1.0000 -0.0000
vn -0.0000 -0.0000 1.0000
s 0
f 33//13 34//13 35//13 36//13
f 33//14 37//14 38//14 34//14
f 34//15 38//15 39//15 35//15
f 35//16 39//16 40//16 36//16
f 38//17 37//17 40//17 39//17
f 33//18 36//18 40//18 37//18
o Column_box_bottom
v 4.420406 -0.000000 3.348957
v 4.420406 -0.000000 2.348957
v 5.320405 -0.000000 2.348957
v 5.320405 -0.000000 3.348957
v 4.420406 0.400000 3.348957
v 4.420406 0.400000 2.348957
v 5.320405 0.400000 2.348957
v 5.320405 0.400000 3.348957
vn -0.0000 -1.0000 -0.0000
vn -1.0000 -0.0000 -0.0000
vn -0.0000 -0.0000 -1.0000
vn 1.0000 -0.0000 -0.0000
vn -0.0000 1.0000 -0.0000
vn -0.0000 -0.0000 1.0000
s 0
f 41//19 42//19 43//19 44//19
f 41//20 45//20 46//20 42//20
f 42//21 46//21 47//21 43//21
f 43//22 47//22 48//22 44//22
f 46//23 45//23 48//23 47//23
f 41//24 44//24 48//24 45//24
o Column_box_top
v 4.420406 2.600000 3.348957
v 4.420406 2.600000 2.348957
v 5.320405 2.600000 2.348957
v 5.320405 2.600000 3.348957
v 4.420406 3.000000 3.348957
v 4.420406 3.000000 2.348957
v 5.320405 3.000000 2.348957
v 5.320405 3.000000 3.348957
vn -0.0000 -1.0000 -0.0000
vn -1.0000 -0.0000 -0.0000
vn -0.0000 -0.0000 -1.0000
vn 1.0000 -0.0000 -0.0000
vn -0.0000 1.0000 -0.0000
vn -0.0000 -0.0000 1.0000
s 0
f 49//25 50//25 51//25 52//25
f 49//26 53//26 54//26 50//26
f 50//27 54//27 55//27 51//27
f 51//28 55//28 56//28 52//28
f 54//29 53//29 56//29 55//29
f 49//30 52//30 56//30 53//30
o Column.001
v 20.778759 0.400000 3.248957
v 20.778759 0.400000 2.448957
v 21.578758 0.400000 2.448957
v 21.578758 0.400000 3.248957
v 20.778759 2.600000 3.248957
v 20.778759 2.600000 2.448957
v 21.578758 2.600000 2.448957
v 21.578758 2.600000 3.248957
vn -0.0000 -1.0000 -0.0000
vn -1.0000 -0.0000 -0.0000
vn -0.0000 -0.0000 -1.0000
vn 1.0000 -0.0000 -0.0000
vn -0.0000 1.0000 -0.0000
vn -0.0000 -0.0000 1.0000
s 0
f 57//31 58//31 59//31 60//31
f 57//32 61//32 62//32 58//32
f 58//33 62//33 63//33 59//33
f 59//34 63//34 64//34 60//34
f 62//35 61//35 64//35 63//35
f 57//36 60//36 64//36 61//36
o Column_box_bottom.001
v 20.728758 -0.000000 3.348957
v 20.728758 -0.000000 2.348957
v 21.628759 -0.000000 2.348957
v 21.628759 -0.000000 3.348957
v 20.728758 0.400000 3.348957
v 20.728758 0.400000 2.348957
v 21.628759 0.400000 2.348957
v 21.628759 0.400000 3.348957
vn -0.0000 -1.0000 -0.0000
vn -1.0000 -0.0000 -0.0000
vn -0.0000 -0.0000 -1.0000
vn 1.0000 -0.0000 -0.0000
vn -0.0000 1.0000 -0.0000
vn -0.0000 -0.0000 1.0000
s 0
f 65//37 66//37 67//37 68//37
f 65//38 69//38 70//38 66//38
f 66//39 70//39 71//39 67//39
f 67//40 71//40 72//40 68//40
f 70//41 69//41 72//41 71//41
f 65//42 68//42 72//42 69//42
o Column_box_top.001
v 20.728758 2.600000 3.348957
v 20.728758 2.600000 2.348957
v 21.628759 2.600000 2.348957
v 21.628759 2.600000 3.348957
v 20.728758 3.000000 3.348957
v 20.728758 3.000000 2.348957
v 21.628759 3.000000 2.348957
v 21.628759 3.000000 3.348957
vn -0.0000 -1.0000 -0.0000
vn -1.0000 -0.0000 -0.0000
vn -0.0000 -0.0000 -1.0000
vn 1.0000 -0.0000 -0.0000
vn -0.0000 1.0000 -0.0000
vn -0.0000 -0.0000 1.0000
s 0
f 73//43 74//43 75//43 76//43
f 73//44 77//44 78//44 74//44
f 74//45 78//45 79//45 75//45
f 75//46 79//46 80//46 76//46
f 78//47 77//47 80//47 79//47
f 73//48 76//48 80//48 77//48
o Column.002
v 20.778759 0.400000 21.555147
v 20.778759 0.400000 20.755148
v 21.578758 0.400000 20.755148
v 21.578758 0.400000 21.555147
v 20.778759 2.600000 21.555147
v 20.778759 2.600000 20.755148
v 21.578758 2.600000 20.755148
v 21.578758 2.600000 21.555147
vn -0.0000 -1.0000 -0.0000
vn -1.0000 -0.0000 -0.0000
vn -0.0000 -0.0000 -1.0000
vn 1.0000 -0.0000 -0.0000
vn -0.0000 1.0000 -0.0000
vn -0.0000 -0.0000 1.0000
s 0
f 81//49 82//49 83//49 84//49
f 81//50 85//50 86//50 82//50
f 82//51 86//51 87//51 83//51
f 83//52 87//52 88//52 84//52
f 86//53 85//53 88//53 87//53
f 81//54 84//54 88//54 85//54
o Column_box_bottom.002
v 20.728758 -0.000000 21.655148
v 20.728758 -0.000000 20.655148
v 21.628759 -0.000000 20.655148
v 21.628759 -0.000000 21.655148
v 20.728758 0.400000 21.655148
v 20.728758 0.400000 20.655148
v 21.628759 0.400000 20.655148
v 21.628759 0.400000 21.655148
vn -0.0000 -1.0000 -0.0000
vn -1.0000 -0.0000 -0.0000
vn -0.0000 -0.0000 -1.0000
vn 1.0000 -0.0000 -0.0000
vn -0.0000 1.0000 -0.0000
vn -0.0000 -0.0000 1.0000
s 0
f 89//55 90//55 91//55 92//55
f 89//56 93//56 94//56 90//56
f 90//57 94//57 95//57 91//57
f 91//58 95//58 96//58 92//58
f 94//59 93//59 96//59 95//59
f 89//60 92//60 96//60 93//60
o Column_box_top.002
v 20.728758 2.600000 21.655148
v 20.728758 2.600000 20.655148
v 21.628759 2.600000 20.655148
v 21.628759 2.600000 21.655148
v 20.728758 3.000000 21.655148
v 20.728758 3.000000 20.655148
v 21.628759 3.000000 20.655148
v 21.628759 3.000000 21.655148
vn -0.0000 -1.0000 -0.0000
vn -1.0000 -0.0000 -0.0000
vn -0.0000 -0.0000 -1.0000
vn 1.0000 -0.0000 -0.0000
vn -0.0000 1.0000 -0.0000
vn -0.0000 -0.0000 1.0000
s 0
f 97//61 98//61 99//61 100//61
f 97//62 101//62 102//62 98//62
f 98//63 102//63 103//63 99//63
f 99//64 103//64 104//64 100//64
f 102//65 101//65 104//65 103//65
f 97//66 100//66 104//66 101//66
o Column.003
v 4.383966 0.400000 21.555147
v 4.383966 0.400000 20.755148
v 5.183966 0.400000 20.755148
v 5.183966 0.400000 21.555147
v 4.383966 2.600000 21.555147
v 4.383966 2.600000 20.755148
v 5.183966 2.600000 20.755148
v 5.183966 2.600000 21.555147
vn -0.0000 -1.0000 -0.0000
vn -1.0000 -0.0000 -0.0000
vn -0.0000 -0.0000 -1.0000
vn 1.0000 -0.0000 -0.0000
vn -0.0000 1.0000 -0.0000
vn -0.0000 -0.0000 1.0000
s 0
f 105//67 106//67 107//67 108//67
f 105//68 109//68 110//68 106//68
f 106//69 110//69 111//69 107//69
f 107//70 111//70 112//70 108//70
f 110//71 109//71 112//71 111//71
f 105//72 108//72 112//72 109//72
o Column_box_bottom.003
v 4.333966 -0.000000 21.655148
v 4.333966 -0.000000 20.655148
v 5.233966 -0.000000 20.655148
v 5.233966 -0.000000 21.655148
v 4.333966 0.400000 21.655148
v 4.333966 0.400000 20.655148
v 5.233966 0.400000 20.655148
v 5.233966 0.400000 21.655148
vn -0.0000 -1.0000 -0.0000
vn -1.0000 -0.0000 -0.0000
vn -0.0000 -0.0000 -1.0000
vn 1.0000 -0.0000 -0.0000
vn -0.0000 1.0000 -0.0000
vn -0.0000 -0.0000 1.0000
s 0
f 113//73 114//73 115//73 116//73
f 113//74 117//74 118//74 114//74
f 114//75 118//75 119//75 115//75
f 115//76 119//76 120//76 116//76
f 118//77 117//77 120//77 119//77
f 113//78 116//78 120//78 117//78
o Column_box_top.003
v 4.333966 2.600000 21.655148
v 4.333966 2.600000 20.655148
v 5.233966 2.600000 20.655148
v 5.233966 2.600000 21.655148
v 4.333966 3.000000 21.655148
v 4.333966 3.000000 20.655148
v 5.233966 3.000000 20.655148
v 5.233966 3.000000 21.655148
vn -0.0000 -1.0000 -0.0000
vn -1.0000 -0.0000 -0.0000
vn -0.0000 -0.0000 -1.0000
vn 1.0000 -0.0000 -0.0000
vn -0.0000 1.0000 -0.0000
vn -0.0000 -0.0000 1.0000
s 0
f 121//79 122//79 123//79 124//79
f 121//80 125//80 126//80 122//80
f 122//81 126//81 127//81 123//81
f 123//82 127//82 128//82 124//82
f 126//83 125//83 128//83 127//83
f 121//84 124//84 128//84 125//84
o Column.004
v 7.240874 0.400000 11.681559
v 7.240874 0.400000 10.881559
v 8.040874 0.400000 10.881559
v 8.040874 0.400000 11.681559
v 7.240874 2.600000 11.681559
v 7.240874 2.600000 10.881559
v 8.040874 2.600000 10.881559
v 8.040874 2.600000 11.681559
vn -0.0000 -1.0000 -0.0000
vn -1.0000 -0.0000 -0.0000
vn -0.0000 -0.0000 -1.0000
vn 1.0000 -0.0000 -0.0000
vn -0.0000 1.0000 -0.0000
vn -0.0000 -0.0000 1.0000
s 0
f 129//85 130//85 131//85 132//85
f 129//86 133//86 134//86 130//86
f 130//87 134//87 135//87 131//87
f 131//88 135//88 136//88 132//88
f 134//89 133//89 136//89 135//89
f 129//90 132//90 136//90 133//90
o Column_box_bottom.004
v 7.190875 -0.000000 11.781559
v 7.190875 -0.000000 10.781559
v 8.090875 -0.000000 10.781559
v 8.090875 -0.000000 11.781559
v 7.190875 0.400000 11.781559
v 7.190875 0.400000 10.781559
v 8.090875 0.400000 10.781559
v 8.090875 0.400000 11.781559
vn -0.0000 -1.0000 -0.0000
vn -1.0000 -0.0000 -0.0000
vn -0.0000 -0.0000 -1.0000
vn 1.0000 -0.0000 -0.0000
vn -0.0000 1.0000 -0.0000
vn -0.0000 -0.0000 1.0000
s 0
f 137//91 138//91 139//91 140//91
f 137//92 141//92 142//92 138//92
f 138//93 142//93 143//93 139//93
f 139//94 143//94 144//94 140//94
f 142//95 141//95 144//95 143//95
f 137//96 140//96 144//96 141//96
o Column_box_top.004
v 7.190875 2.600000 11.781559
v 7.190875 2.600000 10.781559
v 8.090875 2.600000 10.781559
v 8.090875 2.600000 11.781559
v 7.190875 3.000000 11.781559
v 7.190875 3.000000 10.781559
v 8.090875 3.000000 10.781559
v 8.090875 3.000000 11.781559
vn -0.0000 -1.0000 -0.0000
vn -1.0000 -0.0000 -0.0000
vn -0.0000 -0.0000 -1.0000
vn 1.0000 -0.0000 -0.0000
vn -0.0000 1.0000 -0.0000
vn -0.0000 -0.0000 1.0000
s 0
f 145//97 146//97 147//97 148//97
f 145//98 149//98 150//98 146//98
f 146//99 150//99 151//99 147//99
f 147//100 151//100 152//100 148//100
f 150//101 149//101 152//101 151//101
f 145//102 148//102 152//102 149//102
o Floor
v 0.000000 0.000000 0.000000
v 25.000000 0.000000 0.000000
v 25.000000 0.000000 25.000000
v 0.000000 0.000000 25.000000
vn -0.0000 -1.0000 -0.0000
vt 0.528387 0.500116
vt 0.528388 0.999884
vt 0.028620 0.999884
vt 0.028620 0.500116
s 0
f 153/19/103 154/20/103 155/21/103 156/22/103
o Ceiling
v 0.000000 3.000000 0.000000
v 25.000000 3.000000 0.000000
v 25.000000 3.000000 25.000000
v 0.000000 3.000000 25.000000
vn -0.0000 -1.0000 -0.0000
vt 0.528388 0.499884
vt 0.028620 0.499884
vt 0.028620 0.000116
vt 0.528388 0.000116
s 0
f 157/23/104 158/24/104 159/25/104 160/26/104
