# Blender 3.6.5
# www.blender.org
mtllib room6.mtl
o Room
v 0.000000 3.000000 0.000000
v 0.000000 0.000000 0.000000
v 12.500000 3.000000 0.000000
v 12.500000 0.000000 0.000000
v 25.000000 0.000000 0.000000
v 25.000000 3.000000 0.000000
v 25.000000 3.000000 -25.000000
v 25.000000 0.000000 -25.000000
v 0.000000 3.000000 -25.000000
v 0.000000 0.000000 -25.000000
v -0.300000 3.000000 0.300000
v -0.300000 0.000000 0.300000
v 12.500000 3.000000 0.300000
v 12.500000 0.000000 0.300000
v 25.299999 0.000000 0.300000
v 25.299999 3.000000 0.300000
v 25.299999 3.000000 -25.299999
v 25.299999 0.000000 -25.299999
v -0.300000 3.000000 -25.299999
v -0.300000 0.000000 -25.299999
vn -0.0000 -0.0000 -1.0000
vn -1.0000 -0.0000 -0.0000
vn -0.0000 -0.0000 1.0000
vn 1.0000 -0.0000 -0.0000
vn -0.0000 1.0000 -0.0000
vn -0.0000 -1.0000 -0.0000
vt 0.000112 0.670725
vt 0.000112 0.586898
vt 0.020230 0.586898
vt 0.020230 0.670725
vt 0.000112 0.503072
vt 0.020230 0.503072
vt 0.000112 0.335418
vt 0.020230 0.335418
vt 0.000112 0.167765
vt 0.020230 0.167765
vt 0.000112 0.000112
vt 0.020230 0.000112
s 0
f 1/1/1 3/2/1 4/3/1 2/4/1
f 3/2/1 6/5/1 5/6/1 4/3/1
f 5/6/2 6/5/2 7/7/2 8/8/2
f 7/7/3 9/9/3 10/10/3 8/8/3
f 1/11/4 2/12/4 10/10/4 9/9/4
f 11/1/3 12/4/3 14/3/3 13/2/3
f 13/2/3 14/3/3 15/6/3 16/5/3
f 15/6/4 18/8/4 17/7/4 16/5/4
f 17/7/1 18/8/1 20/10/1 19/9/1
f 11/11/2 19/9/2 20/10/2 12/12/2
f 3/2/5 1/1/5 11/1/5 13/2/5
f 4/3/6 5/6/6 15/6/6 14/3/6
f 6/5/5 3/2/5 13/2/5 16/5/5
f 7/7/5 6/5/5 16/5/5 17/7/5
f 5/6/6 8/8/6 18/8/6 15/6/6
f 9/9/5 7/7/5 17/7/5 19/9/5
f 8/8/6 10/10/6 20/10/6 18/8/6
f 1/11/5 9/9/5 19/9/5 11/11/5
f 10/10/6 2/12/6 12/12/6 20/10/6
f 2/4/6 4/3/6 14/3/6 12/4/6
o Room.001
v 0.000000 3.000000 -17.000000
v 0.000000 0.000000 -17.000000
v 10.000000 3.000000 -17.000000
v 10.000000 0.000000 -17.000000
v 10.000000 3.000000 -21.000000
v 10.000000 0.000000 -21.000000
v 0.000000 3.000000 -17.299999
v 0.000000 0.000000 -17.299999
v 9.700000 3.000000 -17.299999
v 9.700000 0.000000 -17.299999
v 9.700000 3.000000 -21.000000
v 9.700000 0.000000 -21.000000
vn -0.0000 -0.0000 1.0000
vn 1.0000 -0.0000 -0.0000
vn -0.0000 -0.0000 -1.0000
vn -1.0000 -0.0000 -0.0000
vn -0.0000 1.0000 -0.0000
vn -0.0000 -1.0000 -0.0000
vt 0.000046 0.999954
vt 0.214312 0.999954
vt 0.214312 0.285734
vt 0.000046 0.285734
vt 0.214312 0.000046
vt 0.000046 0.000046
s 0
f 21/13/7 22/14/7 24/15/7 23/16/7
f 23/16/8 24/15/8 26/17/8 25/18/8
f 27/13/9 29/16/9 30/15/9 28/14/9
f 29/16/10 31/18/10 32/17/10 30/15/10
f 22/14/10 21/13/10 27/13/10 28/14/10
f 21/13/11 23/16/11 29/16/11 27/13/11
f 23/16/11 25/18/11 31/18/11 29/16/11
f 25/18/9 26/17/9 32/17/9 31/18/9
f 24/15/12 22/14/12 28/14/12 30/15/12
f 26/17/12 24/15/12 30/15/12 32/17/12
o Room.002
v 11.000000 3.000000 -17.000000
v 11.000000 0.000000 -17.000000
v 25.000000 3.000000 -17.000000
v 25.000000 0.000000 -17.000000
v 11.000000 3.000000 -17.299999
v 11.000000 0.000000 -17.299999
v 25.000000 3.000000 -17.299999
v 25.000000 0.000000 -17.299999
vn -0.0000 -0.0000 1.0000
vn -0.0000 -0.0000 -1.0000
vn -1.0000 -0.0000 -0.0000
vn -0.0000 1.0000 -0.0000
vn 1.0000 -0.0000 -0.0000
vn -0.0000 -1.0000 -0.0000
vt 0.000046 0.999954
vt 0.214312 0.999954
vt 0.214312 0.000046
vt 0.000046 0.000046
s 0
f 33/19/13 34/20/13 36/21/13 35/22/13
f 37/19/14 39/22/14 40/21/14 38/20/14
f 34/20/15 33/19/15 37/19/15 38/20/15
f 33/19/16 35/22/16 39/22/16 37/19/16
f 35/22/17 36/21/17 40/21/17 39/22/17
f 36/21/18 34/20/18 38/20/18 40/21/18
o Room.003
v 5.937286 3.000000 -2.421476
v 5.937286 -0.000000 -2.421476
v 5.937285 3.000000 -13.421476
v 5.937285 -0.000000 -13.421476
v 5.637286 3.000000 -2.421476
v 5.637286 -0.000000 -2.421476
v 5.637285 3.000000 -13.421476
v 5.637285 -0.000000 -13.421476
vn 1.0000 -0.0000 -0.0000
vn -1.0000 -0.0000 -0.0000
vn -0.0000 -0.0000 1.0000
vn -0.0000 1.0000 -0.0000
vn -0.0000 -0.0000 -1.0000
vn -0.0000 -1.0000 -0.0000
vt 0.000052 0.999948
vt 0.272751 0.999948
vt 0.272751 0.000052
vt 0.000052 0.000052
s 0
f 41/23/19 42/24/19 44/25/19 43/26/19
f 45/23/20 47/26/20 48/25/20 46/24/20
f 42/24/21 41/23/21 45/23/21 46/24/21
f 41/23/22 43/26/22 47/26/22 45/23/22
f 43/26/23 44/25/23 48/25/23 47/26/23
f 44/25/24 42/24/24 46/24/24 48/25/24
o Room.004
v 10.961406 3.000000 -2.849467
v 10.961406 0.000000 -2.849467
v 14.461406 3.000000 -2.849467
v 14.461406 0.000000 -2.849467
v 17.961407 0.000000 -2.849467
v 17.961407 3.000000 -2.849467
v 18.379520 3.000000 -2.874885
v 18.379520 0.000000 -2.874885
v 18.793053 3.000000 -2.950862
v 18.793053 0.000000 -2.950862
v 19.197474 3.000000 -3.076565
v 19.197474 0.000000 -3.076565
v 19.588352 3.000000 -3.250616
v 19.588352 0.000000 -3.250616
v 19.961407 3.000000 -3.471109
v 19.961407 0.000000 -3.471109
v 20.312546 3.000000 -3.735627
v 20.312546 0.000000 -3.735627
v 20.637928 3.000000 -4.041274
v 20.637928 0.000000 -4.041274
v 20.933985 3.000000 -4.384700
v 20.933985 0.000000 -4.384700
v 21.197474 3.000000 -4.762142
v 21.197474 0.000000 -4.762142
v 21.425507 3.000000 -5.169466
v 21.425507 0.000000 -5.169466
v 21.615587 3.000000 -5.602207
v 21.615587 0.000000 -5.602207
v 21.765633 3.000000 -6.055626
v 21.765633 0.000000 -6.055626
v 21.873997 3.000000 -6.524755
v 21.873997 0.000000 -6.524755
v 21.939493 3.000000 -7.004453
v 21.939493 0.000000 -7.004453
v 21.961407 3.000000 -7.489464
v 21.961407 0.000000 -7.489464
v 21.939493 3.000000 -7.974476
v 21.939493 0.000000 -7.974476
v 21.873997 3.000000 -8.454174
v 21.873997 0.000000 -8.454174
v 21.765633 3.000000 -8.923302
v 21.765633 0.000000 -8.923302
v 21.615587 3.000000 -9.376721
v 21.615587 0.000000 -9.376721
v 21.425507 3.000000 -9.809464
v 21.425507 0.000000 -9.809464
v 21.197474 3.000000 -10.216786
v 21.197474 0.000000 -10.216786
v 20.933985 3.000000 -10.594229
v 20.933985 0.000000 -10.594229
v 20.637928 3.000000 -10.937654
v 20.637928 0.000000 -10.937654
v 20.312546 3.000000 -11.243301
v 20.312546 0.000000 -11.243301
v 19.961407 3.000000 -11.507820
v 19.961407 0.000000 -11.507820
v 19.588352 3.000000 -11.728313
v 19.588352 0.000000 -11.728313
v 19.197474 3.000000 -11.902365
v 19.197474 0.000000 -11.902365
v 18.793053 3.000000 -12.028067
v 18.793053 0.000000 -12.028067
v 18.379520 3.000000 -12.104044
v 18.379520 0.000000 -12.104044
v 17.961407 3.000000 -12.129461
v 17.961407 0.000000 -12.129461
v 10.961406 3.000000 -12.129461
v 10.961406 0.000000 -12.129461
v 10.961406 3.000000 -7.129462
v 10.961406 0.000000 -7.129462
v 10.961406 3.000000 -2.549467
v 10.961406 0.000000 -2.549467
v 14.461406 3.000000 -2.549467
v 14.461406 0.000000 -2.549467
v 17.970516 0.000000 -2.549467
v 17.970516 3.000000 -2.549467
v 18.415859 3.000000 -2.576540
v 18.415859 0.000000 -2.576540
v 18.864937 3.000000 -2.659048
v 18.864937 0.000000 -2.659048
v 19.303379 3.000000 -2.795324
v 19.303379 0.000000 -2.795324
v 19.726147 3.000000 -2.983575
v 19.726147 0.000000 -2.983575
v 20.128504 3.000000 -3.221389
v 20.128504 0.000000 -3.221389
v 20.506069 3.000000 -3.505813
v 20.506069 0.000000 -3.505813
v 20.854839 3.000000 -3.833429
v 20.854839 0.000000 -3.833429
v 21.171207 3.000000 -4.200418
v 21.171207 0.000000 -4.200418
v 21.451977 3.000000 -4.602615
v 21.451977 0.000000 -4.602615
v 21.694353 3.000000 -5.035556
v 21.694353 0.000000 -5.035556
v 21.895950 3.000000 -5.494519
v 21.895950 0.000000 -5.494519
v 22.054808 3.000000 -5.974568
v 22.054808 0.000000 -5.974568
v 22.169384 3.000000 -6.470590
v 22.169384 0.000000 -6.470590
v 22.238575 3.000000 -6.977334
v 22.238575 0.000000 -6.977334
v 22.261711 3.000000 -7.489464
v 22.261711 0.000000 -7.489464
v 22.238575 3.000000 -8.001595
v 22.238575 0.000000 -8.001595
v 22.169384 3.000000 -8.508339
v 22.169384 0.000000 -8.508339
v 22.054808 3.000000 -9.004360
v 22.054808 0.000000 -9.004360
v 21.895950 3.000000 -9.484409
v 21.895950 0.000000 -9.484409
v 21.694353 3.000000 -9.943373
v 21.694353 0.000000 -9.943373
v 21.451977 3.000000 -10.376313
v 21.451977 0.000000 -10.376313
v 21.171207 3.000000 -10.778511
v 21.171207 0.000000 -10.778511
v 20.854837 3.000000 -11.145498
v 20.854837 0.000000 -11.145498
v 20.506069 3.000000 -11.473116
v 20.506069 0.000000 -11.473116
v 20.128504 3.000000 -11.757540
v 20.128504 0.000000 -11.757540
v 19.726147 3.000000 -11.995354
v 19.726147 0.000000 -11.995354
v 19.303379 3.000000 -12.183605
v 19.303379 0.000000 -12.183605
v 18.864937 3.000000 -12.319881
v 18.864937 0.000000 -12.319881
v 18.415859 3.000000 -12.402388
v 18.415859 0.000000 -12.402388
v 17.970516 3.000000 -12.429462
v 17.970516 0.000000 -12.429462
v 10.661406 3.000000 -12.429462
v 10.661406 0.000000 -12.429462
v 10.661406 3.000000 -7.129462
v 10.661406 0.000000 -7.129462
vn -0.0000 -0.0000 -1.0000
vn -0.0607 -0.0000 -0.9982
vn -0.1807 -0.0000 -0.9835
vn -0.2968 -0.0000 -0.9549
vn -0.4068 -0.0000 -0.9135
vn -0.5088 -0.0000 -0.8609
vn -0.6017 -0.0000 -0.7987
vn -0.6847 -0.0000 -0.7289
vn -0.7574 -0.0000 -0.6529
vn -0.8200 -0.0000 -0.5724
vn -0.8726 -0.0000 -0.4885
vn -0.9156 -0.0000 -0.4022
vn -0.9494 -0.0000 -0.3142
vn -0.9743 -0.0000 -0.2251
vn -0.9908 -0.0000 -0.1353
vn -0.9990 -0.0000 -0.0451
vn -0.9990 -0.0000 0.0451
vn -0.9908 -0.0000 0.1353
vn -0.9743 -0.0000 0.2251
vn -0.9494 -0.0000 0.3142
vn -0.9156 -0.0000 0.4022
vn -0.8726 -0.0000 0.4885
vn -0.8200 -0.0000 0.5724
vn -0.7574 -0.0000 0.6529
vn -0.6847 -0.0000 0.7289
vn -0.6017 -0.0000 0.7987
vn -0.5088 -0.0000 0.8609
vn -0.4068 -0.0000 0.9135
vn -0.2968 -0.0000 0.9549
vn -0.1807 -0.0000 0.9835
vn -0.0607 -0.0000 0.9982
vn -0.0000 -0.0000 1.0000
vn 1.0000 -0.0000 -0.0000
vn 0.0607 -0.0000 0.9982
vn 0.1807 -0.0000 0.9835
vn 0.2968 -0.0000 0.9549
vn 0.4068 -0.0000 0.9135
vn 0.5088 -0.0000 0.8609
vn 0.6017 -0.0000 0.7987
vn 0.6847 -0.0000 0.7289
vn 0.7574 -0.0000 0.6529
vn 0.8200 -0.0000 0.5724
vn 0.8726 -0.0000 0.4885
vn 0.9156 -0.0000 0.4022
vn 0.9494 -0.0000 0.3142
vn 0.9743 -0.0000 0.2251
vn 0.9908 -0.0000 0.1353
vn 0.9990 -0.0000 0.0451
vn 0.9990 -0.0000 -0.0451
vn 0.9908 -0.0000 -0.1353
vn 0.9743 -0.0000 -0.2251
vn 0.9494 -0.0000 -0.3142
vn 0.9156 -0.0000 -0.4022
vn 0.8726 -0.0000 -0.4885
vn 0.8200 -0.0000 -0.5724
vn 0.7574 -0.0000 -0.6529
vn 0.6847 -0.0000 -0.7289
vn 0.6017 -0.0000 -0.7987
vn 0.5088 -0.0000 -0.8609
vn 0.4068 -0.0000 -0.9135
vn 0.2968 -0.0000 -0.9549
vn 0.1807 -0.0000 -0.9835
vn 0.0607 -0.0000 -0.9982
vn -1.0000 -0.0000 -0.0000
vn -0.0000 1.0000 -0.0000
vn -0.0000 -1.0000 -0.0000
vt 0.092043 0.000043
vt 0.092043 0.107438
vt 0.184096 0.107438
vt 0.184096 0.000043
vt 0.092043 0.214833
vt 0.184096 0.214833
vt 0.092096 0.214926
vt 0.092096 0.227779
vt 0.000043 0.227779
vt 0.000043 0.214926
vt 0.092096 0.240680
vt 0.000043 0.240680
vt 0.092096 0.253675
vt 0.000043 0.253675
vt 0.092096 0.266804
vt 0.000043 0.266804
vt 0.092096 0.280101
vt 0.000043 0.280101
vt 0.092096 0.293591
vt 0.000043 0.293591
vt 0.092096 0.307289
vt 0.000043 0.307289
vt 0.092096 0.321202
vt 0.000043 0.321202
vt 0.092096 0.335326
vt 0.000043 0.335326
vt 0.092096 0.349650
vt 0.000043 0.349650
vt 0.092096 0.364153
vt 0.000043 0.364153
vt 0.092096 0.378808
vt 0.000043 0.378808
vt 0.092096 0.393582
vt 0.000043 0.393582
vt 0.092096 0.408438
vt 0.000043 0.408438
vt 0.092096 0.423335
vt 0.000043 0.423335
vt 0.092096 0.438233
vt 0.000043 0.438233
vt 0.092096 0.453088
vt 0.000043 0.453088
vt 0.092096 0.467862
vt 0.000043 0.467862
vt 0.092096 0.482517
vt 0.000043 0.482517
vt 0.092096 0.497020
vt 0.000043 0.497020
vt 0.092096 0.511344
vt 0.000043 0.511344
vt 0.092096 0.525468
vt 0.000043 0.525468
vt 0.092096 0.539381
vt 0.000043 0.539381
vt 0.092096 0.553079
vt 0.000043 0.553079
vt 0.092096 0.566569
vt 0.000043 0.566569
vt 0.092096 0.579866
vt 0.000043 0.579866
vt 0.092096 0.592995
vt 0.000043 0.592995
vt 0.092096 0.605990
vt 0.000043 0.605990
vt 0.092096 0.618891
vt 0.000043 0.618891
vt 0.092096 0.631745
vt 0.000043 0.631745
vt 0.092096 0.846535
vt 0.000043 0.846535
vt 0.092096 0.999957
vt 0.000043 0.999957
s 0
f 49/27/25 51/28/25 52/29/25 50/30/25
f 51/28/25 54/31/25 53/32/25 52/29/25
f 54/33/26 55/34/26 56/35/26 53/36/26
f 55/34/27 57/37/27 58/38/27 56/35/27
f 57/37/28 59/39/28 60/40/28 58/38/28
f 59/39/29 61/41/29 62/42/29 60/40/29
f 61/41/30 63/43/30 64/44/30 62/42/30
f 63/43/31 65/45/31 66/46/31 64/44/31
f 65/45/32 67/47/32 68/48/32 66/46/32
f 67/47/33 69/49/33 70/50/33 68/48/33
f 69/49/34 71/51/34 72/52/34 70/50/34
f 71/51/35 73/53/35 74/54/35 72/52/35
f 73/53/36 75/55/36 76/56/36 74/54/36
f 75/55/37 77/57/37 78/58/37 76/56/37
f 77/57/38 79/59/38 80/60/38 78/58/38
f 79/59/39 81/61/39 82/62/39 80/60/39
f 81/61/40 83/63/40 84/64/40 82/62/40
f 83/63/41 85/65/41 86/66/41 84/64/41
f 85/65/42 87/67/42 88/68/42 86/66/42
f 87/67/43 89/69/43 90/70/43 88/68/43
f 89/69/44 91/71/44 92/72/44 90/70/44
f 91/71/45 93/73/45 94/74/45 92/72/45
f 93/73/46 95/75/46 96/76/46 94/74/46
f 95/75/47 97/77/47 98/78/47 96/76/47
f 97/77/48 99/79/48 100/80/48 98/78/48
f 99/79/49 101/81/49 102/82/49 100/80/49
f 101/81/50 103/83/50 104/84/50 102/82/50
f 103/83/51 105/85/51 106/86/51 104/84/51
f 105/85/52 107/87/52 108/88/52 106/86/52
f 107/87/53 109/89/53 110/90/53 108/88/53
f 109/89/54 111/91/54 112/92/54 110/90/54
f 111/91/55 113/93/55 114/94/55 112/92/55
f 113/93/56 115/95/56 116/96/56 114/94/56
f 115/95/57 117/97/57 118/98/57 116/96/57
f 119/27/56 120/30/56 122/29/56 121/28/56
f 121/28/56 122/29/56 123/32/56 124/31/56
f 124/33/58 123/36/58 126/35/58 125/34/58
f 125/34/59 126/35/59 128/38/59 127/37/59
f 127/37/60 128/38/60 130/40/60 129/39/60
f 129/39/61 130/40/61 132/42/61 131/41/61
f 131/41/62 132/42/62 134/44/62 133/43/62
f 133/43/63 134/44/63 136/46/63 135/45/63
f 135/45/64 136/46/64 138/48/64 137/47/64
f 137/47/65 138/48/65 140/50/65 139/49/65
f 139/49/66 140/50/66 142/52/66 141/51/66
f 141/51/67 142/52/67 144/54/67 143/53/67
f 143/53/68 144/54/68 146/56/68 145/55/68
f 145/55/69 146/56/69 148/58/69 147/57/69
f 147/57/70 148/58/70 150/60/70 149/59/70
f 149/59/71 150/60/71 152/62/71 151/61/71
f 151/61/72 152/62/72 154/64/72 153/63/72
f 153/63/73 154/64/73 156/66/73 155/65/73
f 155/65/74 156/66/74 158/68/74 157/67/74
f 157/67/75 158/68/75 160/70/75 159/69/75
f 159/69/76 160/70/76 162/72/76 161/71/76
f 161/71/77 162/72/77 164/74/77 163/73/77
f 163/73/78 164/74/78 166/76/78 165/75/78
f 165/75/79 166/76/79 168/78/79 167/77/79
f 167/77/80 168/78/80 170/80/80 169/79/80
f 169/79/81 170/80/81 172/82/81 171/81/81
f 171/81/82 172/82/82 174/84/82 173/83/82
f 173/83/83 174/84/83 176/86/83 175/85/83
f 175/85/84 176/86/84 178/88/84 177/87/84
f 177/87/85 178/88/85 180/90/85 179/89/85
f 179/89/86 180/90/86 182/92/86 181/91/86
f 181/91/87 182/92/87 184/94/87 183/93/87
f 183/93/25 184/94/25 186/96/25 185/95/25
f 185/95/88 186/96/88 188/98/88 187/97/88
f 49/27/88 50/30/88 120/30/88 119/27/88
f 51/28/89 49/27/89 119/27/89 121/28/89
f 52/29/90 53/32/90 123/32/90 122/29/90
f 54/31/89 51/28/89 121/28/89 124/31/89
f 57/37/89 55/34/89 125/34/89 127/37/89
f 59/39/89 57/37/89 127/37/89 129/39/89
f 61/41/89 59/39/89 129/39/89 131/41/89
f 63/43/89 61/41/89 131/41/89 133/43/89
f 65/45/89 63/43/89 133/43/89 135/45/89
f 67/47/89 65/45/89 135/45/89 137/47/89
f 69/49/89 67/47/89 137/47/89 139/49/89
f 50/30/90 52/29/90 122/29/90 120/30/90
f 73/53/89 71/51/89 141/51/89 143/53/89
f 68/48/90 70/50/90 140/50/90 138/48/90
f 77/57/89 75/55/89 145/55/89 147/57/89
f 79/59/89 77/57/89 147/57/89 149/59/89
f 81/61/89 79/59/89 149/59/89 151/61/89
f 83/63/89 81/61/89 151/61/89 153/63/89
f 85/65/89 83/63/89 153/63/89 155/65/89
f 87/67/89 85/65/89 155/65/89 157/67/89
f 71/51/89 69/49/89 139/49/89 141/51/89
f 89/69/89 87/67/89 157/67/89 159/69/89
f 91/71/89 89/69/89 159/69/89 161/71/89
f 86/66/90 88/68/90 158/68/90 156/66/90
f 93/73/89 91/71/89 161/71/89 163/73/89
f 95/75/89 93/73/89 163/73/89 165/75/89
f 97/77/89 95/75/89 165/75/89 167/77/89
f 99/79/89 97/77/89 167/77/89 169/79/89
f 70/50/90 72/52/90 142/52/90 140/50/90
f 103/83/89 101/81/89 171/81/89 173/83/89
f 90/70/90 92/72/90 162/72/90 160/70/90
f 107/87/89 105/85/89 175/85/89 177/87/89
f 109/89/89 107/87/89 177/87/89 179/89/89
f 111/91/89 109/89/89 179/89/89 181/91/89
f 113/93/89 111/91/89 181/91/89 183/93/89
f 115/95/89 113/93/89 183/93/89 185/95/89
f 106/86/90 108/88/90 178/88/90 176/86/90
f 118/98/56 117/97/56 187/97/56 188/98/56
f 72/52/90 74/54/90 144/54/90 142/52/90
f 92/72/90 94/74/90 164/74/90 162/72/90
f 112/92/90 114/94/90 184/94/90 182/92/90
f 75/55/89 73/53/89 143/53/89 145/55/89
f 74/54/90 76/56/90 146/56/90 144/54/90
f 94/74/90 96/76/90 166/76/90 164/74/90
f 88/68/90 90/70/90 160/70/90 158/68/90
f 114/94/90 116/96/90 186/96/90 184/94/90
f 66/46/90 68/48/90 138/48/90 136/46/90
f 56/35/90 58/38/90 128/38/90 126/35/90
f 117/97/89 115/95/89 185/95/89 187/97/89
f 76/56/90 78/58/90 148/58/90 146/56/90
f 96/76/90 98/78/90 168/78/90 166/76/90
f 116/96/90 118/98/90 188/98/90 186/96/90
f 110/90/90 112/92/90 182/92/90 180/90/90
f 58/38/90 60/40/90 130/40/90 128/38/90
f 78/58/90 80/60/90 150/60/90 148/58/90
f 98/78/90 100/80/90 170/80/90 168/78/90
f 101/81/89 99/79/89 169/79/89 171/81/89
f 60/40/90 62/42/90 132/42/90 130/40/90
f 80/60/90 82/62/90 152/62/90 150/60/90
f 100/80/90 102/82/90 172/82/90 170/80/90
f 108/88/90 110/90/90 180/90/90 178/88/90
f 62/42/90 64/44/90 134/44/90 132/42/90
f 82/62/90 84/64/90 154/64/90 152/62/90
f 102/82/90 104/84/90 174/84/90 172/82/90
f 105/85/89 103/83/89 173/83/89 175/85/89
f 64/44/90 66/46/90 136/46/90 134/44/90
f 84/64/90 86/66/90 156/66/90 154/64/90
f 104/84/90 106/86/90 176/86/90 174/84/90
f 55/34/89 54/33/89 124/33/89 125/34/89
f 53/36/90 56/35/90 126/35/90 123/36/90
o Floor
v 0.000000 0.000000 0.000000
v 12.500000 0.000000 0.000000
v 25.000000 0.000000 0.000000
v 25.000000 0.000000 -25.000000
v 0.000000 0.000000 -25.000000
vn -0.0000 1.0000 -0.0000
vt 0.020453 0.500112
vt 0.270342 0.500112
vt 0.520230 0.500112
vt 0.520230 0.999888
vt 0.020453 0.999888
s 0
f 189/99/91 190/100/91 191/101/91 192/102/91 193/103/91
o Ceiling
v 0.000000 3.000000 0.000000
v 12.500000 3.000000 0.000000
v 25.000000 3.000000 0.000000
v 25.000000 3.000000 -25.000000
v 0.000000 3.000000 -25.000000
vn -0.0000 1.0000 -0.0000
vt 0.020453 0.000112
vt 0.270342 0.000112
vt 0.520230 0.000112
vt 0.520230 0.499888
vt 0.020453 0.499888
s 0
f 194/104/92 195/105/92 196/106/92 197/107/92 198/108/92
