# Blender 3.6.5
# www.blender.org
mtllib room8.mtl
o Room
v 0.000000 3.000000 0.000000
v 0.000000 0.000000 0.000000
v 25.000000 3.000000 0.000000
v 25.000000 0.000000 0.000000
v 25.000000 3.000000 -25.000000
v 25.000000 0.000000 -25.000000
v 0.000000 3.000000 -25.000000
v 0.000000 0.000000 -25.000000
v -0.300000 3.000000 0.300000
v -0.300000 0.000000 0.300000
v 25.299999 3.000000 0.300000
v 25.299999 0.000000 0.300000
v 25.299999 3.000000 -25.299999
v 25.299999 0.000000 -25.299999
v -0.300000 3.000000 -25.299999
v -0.300000 0.000000 -25.299999
vn -0.0000 -0.0000 -1.0000
vn -1.0000 -0.0000 -0.0000
vn -0.0000 -0.0000 1.0000
vn 1.0000 -0.0000 -0.0000
vn -0.0000 1.0000 -0.0000
vn -0.0000 -1.0000 -0.0000
vt 0.000116 0.942487
vt 0.000116 0.706894
vt 0.028387 0.706894
vt 0.028387 0.942487
vt 0.000116 0.471301
vt 0.028387 0.471301
vt 0.000116 0.235709
vt 0.028387 0.235709
vt 0.000116 0.000116
vt 0.028388 0.000116
s 0
f 1/1/1 3/2/1 4/3/1 2/4/1
f 3/2/2 5/5/2 6/6/2 4/3/2
f 5/5/3 7/7/3 8/8/3 6/6/3
f 1/9/4 2/10/4 8/8/4 7/7/4
f 9/1/3 10/4/3 12/3/3 11/2/3
f 11/2/4 12/3/4 14/6/4 13/5/4
f 13/5/1 14/6/1 16/8/1 15/7/1
f 9/9/2 15/7/2 16/8/2 10/10/2
f 3/2/5 1/1/5 9/1/5 11/2/5
f 5/5/5 3/2/5 11/2/5 13/5/5
f 7/7/5 5/5/5 13/5/5 15/7/5
f 6/6/6 8/8/6 16/8/6 14/6/6
f 4/3/6 6/6/6 14/6/6 12/3/6
f 2/4/6 4/3/6 12/3/6 10/4/6
f 8/8/6 2/10/6 10/10/6 16/8/6
f 1/9/5 7/7/5 15/7/5 9/9/5
o Room.001
v 21.000000 3.000000 -2.000000
v 21.000000 0.000000 -2.000000
v 17.110912 3.000000 -5.889086
v 17.110912 0.000000 -5.889086
v 13.221823 0.000000 -9.778172
v 13.221823 3.000000 -9.778172
v 11.454057 3.000000 -8.010405
v 11.454057 0.000000 -8.010405
v 9.686291 0.000000 -6.242637
v 9.686291 3.000000 -6.242637
v 4.686289 3.000000 -6.242635
v 4.686289 0.000000 -6.242635
v 4.686287 3.000000 -16.242634
v 4.686287 0.000000 -16.242634
v 20.787868 3.000000 -1.787868
v 20.787868 0.000000 -1.787868
v 16.898779 3.000000 -5.676954
v 16.898779 0.000000 -5.676954
v 13.221823 0.000000 -9.353909
v 13.221823 3.000000 -9.353909
v 11.666189 3.000000 -7.798273
v 11.666189 0.000000 -7.798273
v 9.810555 0.000000 -5.942637
v 9.810555 3.000000 -5.942637
v 4.386290 3.000000 -5.942635
v 4.386290 0.000000 -5.942635
v 4.386288 3.000000 -16.242634
v 4.386288 0.000000 -16.242634
vn 0.7071 -0.0000 -0.7071
vn -0.7071 -0.0000 -0.7071
vn -0.0000 -0.0000 -1.0000
vn 1.0000 -0.0000 -0.0000
vn -0.7071 -0.0000 0.7071
vn 0.7071 -0.0000 0.7071
vn -0.0000 -0.0000 1.0000
vn -1.0000 -0.0000 -0.0000
vn -0.0000 1.0000 -0.0000
vn -0.0000 -1.0000 -0.0000
vt 0.096800 0.000031
vt 0.000031 0.000031
vt 0.000031 0.177439
vt 0.096800 0.177439
vt 0.000031 0.354848
vt 0.096799 0.354848
vt 0.000031 0.435488
vt 0.096799 0.435488
vt 0.000031 0.516128
vt 0.096799 0.516128
vt 0.000031 0.677408
vt 0.096799 0.677408
vt 0.000031 0.999969
vt 0.096799 0.999969
s 0
f 17/11/7 18/12/7 20/13/7 19/14/7
f 19/14/7 20/13/7 21/15/7 22/16/7
f 21/15/8 24/17/8 23/18/8 22/16/8
f 23/18/8 24/17/8 25/19/8 26/20/8
f 25/19/9 28/21/9 27/22/9 26/20/9
f 27/22/10 28/21/10 30/23/10 29/24/10
f 31/11/11 33/14/11 34/13/11 32/12/11
f 33/14/11 36/16/11 35/15/11 34/13/11
f 35/15/12 36/16/12 37/18/12 38/17/12
f 37/18/12 40/20/12 39/19/12 38/17/12
f 39/19/13 40/20/13 41/22/13 42/21/13
f 41/22/14 43/24/14 44/23/14 42/21/14
f 18/12/12 17/11/12 31/11/12 32/12/12
f 17/11/15 19/14/15 33/14/15 31/11/15
f 21/15/16 20/13/16 34/13/16 35/15/16
f 19/14/15 22/16/15 36/16/15 33/14/15
f 22/16/15 23/18/15 37/18/15 36/16/15
f 24/17/16 21/15/16 35/15/16 38/17/16
f 25/19/16 24/17/16 38/17/16 39/19/16
f 23/18/15 26/20/15 40/20/15 37/18/15
f 26/20/15 27/22/15 41/22/15 40/20/15
f 28/21/16 25/19/16 39/19/16 42/21/16
f 27/22/15 29/24/15 43/24/15 41/22/15
f 29/24/9 30/23/9 44/23/9 43/24/9
f 20/13/16 18/12/16 32/12/16 34/13/16
f 30/23/16 28/21/16 42/21/16 44/23/16
o Room.002
v 9.166402 3.000000 -14.344752
v 9.166402 0.000000 -14.344752
v 9.166402 3.000000 -20.344753
v 9.166402 0.000000 -20.344753
v 19.166401 3.000000 -20.344753
v 19.166401 0.000000 -20.344753
v 20.534481 3.000000 -16.585983
v 20.534481 0.000000 -16.585983
v 21.902563 0.000000 -12.827212
v 21.902563 3.000000 -12.827212
v 8.866402 3.000000 -14.344752
v 8.866402 0.000000 -14.344752
v 8.866402 3.000000 -20.644753
v 8.866402 0.000000 -20.644753
v 19.376465 3.000000 -20.644753
v 19.376465 0.000000 -20.644753
v 20.816391 3.000000 -16.688589
v 20.816391 0.000000 -16.688589
v 22.184471 0.000000 -12.929818
v 22.184471 3.000000 -12.929818
vn 1.0000 -0.0000 -0.0000
vn -0.0000 -0.0000 1.0000
vn -0.9397 -0.0000 0.3420
vn -1.0000 -0.0000 -0.0000
vn -0.0000 -0.0000 -1.0000
vn 0.9397 -0.0000 -0.3420
vn -0.0000 1.0000 -0.0000
vn -0.0000 -1.0000 -0.0000
vn 0.3420 -0.0000 0.9397
vt 0.125027 0.000035
vt 0.000035 0.000035
vt 0.000035 0.250018
vt 0.125027 0.250018
vt 0.000035 0.666655
vt 0.125027 0.666655
vt 0.000036 0.833310
vt 0.125027 0.833310
vt 0.000036 0.999965
vt 0.125027 0.999965
s 0
f 45/25/17 46/26/17 48/27/17 47/28/17
f 47/28/18 48/27/18 50/29/18 49/30/18
f 49/30/19 50/29/19 52/31/19 51/32/19
f 51/32/19 52/31/19 53/33/19 54/34/19
f 55/25/20 57/28/20 58/27/20 56/26/20
f 57/28/21 59/30/21 60/29/21 58/27/21
f 59/30/22 61/32/22 62/31/22 60/29/22
f 61/32/22 64/34/22 63/33/22 62/31/22
f 46/26/18 45/25/18 55/25/18 56/26/18
f 45/25/23 47/28/23 57/28/23 55/25/23
f 47/28/23 49/30/23 59/30/23 57/28/23
f 49/30/23 51/32/23 61/32/23 59/30/23
f 53/33/24 52/31/24 62/31/24 63/33/24
f 51/32/23 54/34/23 64/34/23 61/32/23
f 52/31/24 50/29/24 60/29/24 62/31/24
f 54/34/25 53/33/25 63/33/25 64/34/25
f 50/29/24 48/27/24 58/27/24 60/29/24
f 48/27/24 46/26/24 56/26/24 58/27/24
o Floor
v 0.000000 0.000000 0.000000
v 25.000000 0.000000 0.000000
v 25.000000 0.000000 -25.000000
v 0.000000 0.000000 -25.000000
vn -0.0000 1.0000 -0.0000
vt 0.028620 0.999884
vt 0.028620 0.500116
vt 0.528387 0.500116
vt 0.528387 0.999884
s 0
f 65/35/26 66/36/26 67/37/26 68/38/26
o Ceiling
v 0.000000 3.000000 0.000000
v 25.000000 3.000000 0.000000
v 25.000000 3.000000 -25.000000
v 0.000000 3.000000 -25.000000
vn -0.0000 1.0000 -0.0000
vt 0.028620 0.499884
vt 0.028620 0.000116
vt 0.528387 0.000116
vt 0.528388 0.499884
s 0
f 69/39/27 70/40/27 71/41/27 72/42/27
