# Blender 3.6.5
# www.blender.org
mtllib room5.mtl
o Room
v 0.000000 3.000000 0.000000
v 0.000000 0.000000 0.000000
v 25.000000 3.000000 0.000000
v 25.000000 0.000000 0.000000
v 25.000000 3.000000 -25.000000
v 25.000000 0.000000 -25.000000
v 0.000000 3.000000 -25.000000
v 0.000000 0.000000 -25.000000
v -0.300000 3.000000 0.300000
v -0.300000 0.000000 0.300000
v 25.299999 3.000000 0.300000
v 25.299999 0.000000 0.300000
v 25.299999 3.000000 -25.299999
v 25.299999 0.000000 -25.299999
v -0.300000 3.000000 -25.299999
v -0.300000 0.000000 -25.299999
vn -0.0000 -0.0000 -1.0000
vn -1.0000 -0.0000 -0.0000
vn -0.0000 -0.0000 1.0000
vn 1.0000 -0.0000 -0.0000
vn -0.0000 1.0000 -0.0000
vn -0.0000 -1.0000 -0.0000
vt 0.000116 0.942487
vt 0.000116 0.706894
vt 0.028387 0.706894
vt 0.028387 0.942487
vt 0.000116 0.471301
vt 0.028387 0.471301
vt 0.000116 0.235709
vt 0.028387 0.235709
vt 0.000116 0.000116
vt 0.028388 0.000116
s 0
f 1/1/1 3/2/1 4/3/1 2/4/1
f 3/2/2 5/5/2 6/6/2 4/3/2
f 5/5/3 7/7/3 8/8/3 6/6/3
f 1/9/4 2/10/4 8/8/4 7/7/4
f 9/1/3 10/4/3 12/3/3 11/2/3
f 11/2/4 12/3/4 14/6/4 13/5/4
f 13/5/1 14/6/1 16/8/1 15/7/1
f 9/9/2 15/7/2 16/8/2 10/10/2
f 3/2/5 1/1/5 9/1/5 11/2/5
f 5/5/5 3/2/5 11/2/5 13/5/5
f 7/7/5 5/5/5 13/5/5 15/7/5
f 6/6/6 8/8/6 16/8/6 14/6/6
f 4/3/6 6/6/6 14/6/6 12/3/6
f 2/4/6 4/3/6 12/3/6 10/4/6
f 8/8/6 2/10/6 10/10/6 16/8/6
f 1/9/5 7/7/5 15/7/5 9/9/5
o Room.001
v 0.000000 3.000000 -11.000000
v 0.000000 0.000000 -11.000000
v 3.000000 3.000000 -11.000000
v 3.000000 0.000000 -11.000000
v 3.000000 3.000000 -5.000000
v 3.000000 0.000000 -5.000000
v 11.000000 3.000000 -5.000000
v 11.000000 0.000000 -5.000000
v 11.000000 3.000000 0.000000
v 11.000000 0.000000 0.000000
v 0.000000 3.000000 -10.700000
v 0.000000 0.000000 -10.700000
v 2.700000 3.000000 -10.700000
v 2.700000 0.000000 -10.700000
v 2.700000 3.000000 -4.700000
v 2.700000 0.000000 -4.700000
v 10.700000 3.000000 -4.700000
v 10.700000 0.000000 -4.700000
v 10.700000 3.000000 0.000000
v 10.700000 0.000000 0.000000
vn -0.0000 -0.0000 -1.0000
vn 1.0000 -0.0000 -0.0000
vn -0.0000 -0.0000 1.0000
vn -1.0000 -0.0000 -0.0000
vn -0.0000 1.0000 -0.0000
vn -0.0000 -1.0000 -0.0000
vt 0.000037 0.999963
vt 0.000037 0.863610
vt 0.136391 0.863610
vt 0.136391 0.999963
vt 0.000037 0.590902
vt 0.136391 0.590902
vt 0.000037 0.227293
vt 0.136391 0.227293
vt 0.000037 0.000037
vt 0.136391 0.000037
s 0
f 17/11/7 19/12/7 20/13/7 18/14/7
f 19/12/8 21/15/8 22/16/8 20/13/8
f 21/15/7 23/17/7 24/18/7 22/16/7
f 23/17/8 25/19/8 26/20/8 24/18/8
f 27/11/9 28/14/9 30/13/9 29/12/9
f 29/12/10 30/13/10 32/16/10 31/15/10
f 31/15/9 32/16/9 34/18/9 33/17/9
f 33/17/10 34/18/10 36/20/10 35/19/10
f 17/11/10 18/14/10 28/14/10 27/11/10
f 19/12/11 17/11/11 27/11/11 29/12/11
f 21/15/11 19/12/11 29/12/11 31/15/11
f 23/17/11 21/15/11 31/15/11 33/17/11
f 25/19/11 23/17/11 33/17/11 35/19/11
f 24/18/12 26/20/12 36/20/12 34/18/12
f 22/16/12 24/18/12 34/18/12 32/16/12
f 26/20/9 25/19/9 35/19/9 36/20/9
f 20/13/12 22/16/12 32/16/12 30/13/12
f 18/14/12 20/13/12 30/13/12 28/14/12
o Room.002
v 3.000000 3.000000 -14.000000
v 3.000000 0.000000 -14.000000
v 6.000000 3.000000 -14.000000
v 6.000000 0.000000 -14.000000
v 6.000000 3.000000 -8.000000
v 6.000000 0.000000 -8.000000
v 14.000000 3.000000 -8.000000
v 14.000000 0.000000 -8.000000
v 14.000000 3.000000 -3.000000
v 14.000000 0.000000 -3.000000
v 17.000000 3.000000 -3.000000
v 17.000000 0.000000 -3.000000
v 17.000000 3.000000 -11.000000
v 17.000000 0.000000 -11.000000
v 9.000000 3.000000 -11.000000
v 9.000000 0.000000 -11.000000
v 9.000000 3.000000 -16.000000
v 9.000000 0.000000 -16.000000
v 17.000000 3.000000 -16.000000
v 17.000000 0.000000 -16.000000
v 17.000000 3.000000 -21.000000
v 17.000000 0.000000 -21.000000
v 10.000000 3.000000 -21.000000
v 10.000000 0.000000 -21.000000
v 3.724264 3.000000 -14.300000
v 3.724264 0.000000 -14.300000
v 6.300000 3.000000 -14.300000
v 6.300000 0.000000 -14.300000
v 6.300000 3.000000 -8.300000
v 6.300000 0.000000 -8.300000
v 14.300000 3.000000 -8.300000
v 14.300000 0.000000 -8.300000
v 14.300000 3.000000 -3.300000
v 14.300000 0.000000 -3.300000
v 16.700001 3.000000 -3.300000
v 16.700001 0.000000 -3.300000
v 16.700001 3.000000 -10.700000
v 16.700001 0.000000 -10.700000
v 8.700000 3.000000 -10.700000
v 8.700000 0.000000 -10.700000
v 8.700000 3.000000 -16.299999
v 8.700000 0.000000 -16.299999
v 16.700001 3.000000 -16.299999
v 16.700001 0.000000 -16.299999
v 16.700001 3.000000 -20.700001
v 16.700001 0.000000 -20.700001
v 10.124264 3.000000 -20.700001
v 10.124264 0.000000 -20.700001
vn -0.0000 -0.0000 1.0000
vn -1.0000 -0.0000 -0.0000
vn 1.0000 -0.0000 -0.0000
vn -0.0000 -0.0000 -1.0000
vn -0.7071 -0.0000 -0.7071
vn 0.7071 -0.0000 0.7071
vn -0.0000 1.0000 -0.0000
vn -0.0000 -1.0000 -0.0000
vt 0.000020 0.999980
vt 0.039544 0.999980
vt 0.039544 0.960456
vt 0.000020 0.960456
vt 0.039544 0.881407
vt 0.000020 0.881407
vt 0.039544 0.776009
vt 0.000020 0.776009
vt 0.039544 0.710135
vt 0.000020 0.710135
vt 0.039544 0.670610
vt 0.000020 0.670610
vt 0.039544 0.565212
vt 0.000020 0.565212
vt 0.039544 0.459814
vt 0.000020 0.459814
vt 0.039544 0.393940
vt 0.000020 0.393940
vt 0.039544 0.288541
vt 0.000020 0.288541
vt 0.039544 0.222667
vt 0.000020 0.222667
vt 0.039544 0.130444
vt 0.000020 0.130444
vt 0.000020 0.000020
vt 0.039544 0.000020
s 0
f 37/21/13 38/22/13 40/23/13 39/24/13
f 39/24/14 40/23/14 42/25/14 41/26/14
f 41/26/13 42/25/13 44/27/13 43/28/13
f 43/28/14 44/27/14 46/29/14 45/30/14
f 45/30/13 46/29/13 48/31/13 47/32/13
f 47/32/15 48/31/15 50/33/15 49/34/15
f 49/34/16 50/33/16 52/35/16 51/36/16
f 51/36/15 52/35/15 54/37/15 53/38/15
f 53/38/13 54/37/13 56/39/13 55/40/13
f 55/40/15 56/39/15 58/41/15 57/42/15
f 57/42/16 58/41/16 60/43/16 59/44/16
f 37/45/17 59/44/17 60/43/17 38/46/17
f 61/21/16 63/24/16 64/23/16 62/22/16
f 63/24/15 65/26/15 66/25/15 64/23/15
f 65/26/16 67/28/16 68/27/16 66/25/16
f 67/28/15 69/30/15 70/29/15 68/27/15
f 69/30/16 71/32/16 72/31/16 70/29/16
f 71/32/14 73/34/14 74/33/14 72/31/14
f 73/34/13 75/36/13 76/35/13 74/33/13
f 75/36/14 77/38/14 78/37/14 76/35/14
f 77/38/16 79/40/16 80/39/16 78/37/16
f 79/40/14 81/42/14 82/41/14 80/39/14
f 81/42/13 83/44/13 84/43/13 82/41/13
f 61/45/18 62/46/18 84/43/18 83/44/18
f 37/21/19 39/24/19 63/24/19 61/21/19
f 39/24/19 41/26/19 65/26/19 63/24/19
f 41/26/19 43/28/19 67/28/19 65/26/19
f 43/28/19 45/30/19 69/30/19 67/28/19
f 45/30/19 47/32/19 71/32/19 69/30/19
f 48/31/20 46/29/20 70/29/20 72/31/20
f 47/32/19 49/34/19 73/34/19 71/32/19
f 50/33/20 48/31/20 72/31/20 74/33/20
f 49/34/19 51/36/19 75/36/19 73/34/19
f 51/36/19 53/38/19 77/38/19 75/36/19
f 53/38/19 55/40/19 79/40/19 77/38/19
f 55/40/19 57/42/19 81/42/19 79/40/19
f 57/42/19 59/44/19 83/44/19 81/42/19
f 40/23/20 38/22/20 62/22/20 64/23/20
f 60/43/20 58/41/20 82/41/20 84/43/20
f 42/25/20 40/23/20 64/23/20 66/25/20
f 52/35/20 50/33/20 74/33/20 76/35/20
f 44/27/20 42/25/20 66/25/20 68/27/20
f 54/37/20 52/35/20 76/35/20 78/37/20
f 46/29/20 44/27/20 68/27/20 70/29/20
f 56/39/20 54/37/20 78/37/20 80/39/20
f 59/44/19 37/45/19 61/45/19 83/44/19
f 38/46/20 60/43/20 84/43/20 62/46/20
f 58/41/20 56/39/20 80/39/20 82/41/20
o Floor
v 0.000000 0.000000 0.000000
v 25.000000 0.000000 0.000000
v 25.000000 0.000000 -25.000000
v 0.000000 0.000000 -25.000000
vn -0.0000 1.0000 -0.0000
vt 0.028620 0.999884
vt 0.028620 0.500116
vt 0.528387 0.500116
vt 0.528387 0.999884
s 0
f 85/47/21 86/48/21 87/49/21 88/50/21
o Ceiling
v 0.000000 3.000000 0.000000
v 25.000000 3.000000 0.000000
v 25.000000 3.000000 -25.000000
v 0.000000 3.000000 -25.000000
vn -0.0000 1.0000 -0.0000
vt 0.028620 0.499884
vt 0.028620 0.000116
vt 0.528387 0.000116
vt 0.528388 0.499884
s 0
f 89/51/22 90/52/22 91/53/22 92/54/22
