# Blender 3.6.5
# www.blender.org
mtllib room4.mtl
o Room
v 0.000000 3.000000 0.000000
v 0.000000 0.000000 0.000000
v 25.000000 3.000000 0.000000
v 25.000000 0.000000 0.000000
v 25.000000 3.000000 -25.000000
v 25.000000 0.000000 -25.000000
v 0.000000 3.000000 -25.000000
v 0.000000 0.000000 -25.000000
v -0.300000 3.000000 0.300000
v -0.300000 0.000000 0.300000
v 25.299999 3.000000 0.300000
v 25.299999 0.000000 0.300000
v 25.299999 3.000000 -25.299999
v 25.299999 0.000000 -25.299999
v -0.300000 3.000000 -25.299999
v -0.300000 0.000000 -25.299999
vn -0.0000 -0.0000 -1.0000
vn -1.0000 -0.0000 -0.0000
vn -0.0000 -0.0000 1.0000
vn 1.0000 -0.0000 -0.0000
vn -0.0000 1.0000 -0.0000
vn -0.0000 -1.0000 -0.0000
vt 0.000116 0.942487
vt 0.000116 0.706894
vt 0.028387 0.706894
vt 0.028387 0.942487
vt 0.000116 0.471301
vt 0.028387 0.471301
vt 0.000116 0.235709
vt 0.028387 0.235709
vt 0.000116 0.000116
vt 0.028388 0.000116
s 0
f 1/1/1 3/2/1 4/3/1 2/4/1
f 3/2/2 5/5/2 6/6/2 4/3/2
f 5/5/3 7/7/3 8/8/3 6/6/3
f 1/9/4 2/10/4 8/8/4 7/7/4
f 9/1/3 10/4/3 12/3/3 11/2/3
f 11/2/4 12/3/4 14/6/4 13/5/4
f 13/5/1 14/6/1 16/8/1 15/7/1
f 9/9/2 15/7/2 16/8/2 10/10/2
f 3/2/5 1/1/5 9/1/5 11/2/5
f 5/5/5 3/2/5 11/2/5 13/5/5
f 7/7/5 5/5/5 13/5/5 15/7/5
f 6/6/6 8/8/6 16/8/6 14/6/6
f 4/3/6 6/6/6 14/6/6 12/3/6
f 2/4/6 4/3/6 12/3/6 10/4/6
f 8/8/6 2/10/6 10/10/6 16/8/6
f 1/9/5 7/7/5 15/7/5 9/9/5
o Floor
v 0.000000 0.000000 0.000000
v 25.000000 0.000000 0.000000
v 25.000000 0.000000 -25.000000
v 0.000000 0.000000 -25.000000
vn -0.0000 1.0000 -0.0000
vt 0.028620 0.999884
vt 0.028620 0.500116
vt 0.528387 0.500116
vt 0.528387 0.999884
s 0
f 17/11/7 18/12/7 19/13/7 20/14/7
o Ceiling
v 0.000000 3.000000 0.000000
v 25.000000 3.000000 0.000000
v 25.000000 3.000000 -25.000000
v 0.000000 3.000000 -25.000000
vn -0.0000 1.0000 -0.0000
vt 0.028620 0.499884
vt 0.028620 0.000116
vt 0.528387 0.000116
vt 0.528388 0.499884
s 0
f 21/15/8 22/16/8 23/17/8 24/18/8
